# xmcd
#
# Track frame offsets: 
#        150
#        14170
#        27473
#        41963
#        58247
#        82676
#        95635
#        111016
#        138630
#        165178
#
# Disc length: 2343 seconds
#
# Revision: 0
# Processed by: cddbd v1.5.2PL0 Copyright (c) Steve Scherf et al.
# Submitted via: ExactAudioCopy v1.0b3
#
DISCID=8409250a
DTITLE=Slow Joe - Lost For Love
DYEAR=2014
DGENRE=Blues
TTITLE0=You Don't Have To Tell Me
TTITLE1=No Caramel Custards
TTITLE2=The Mulberry Bush
TTITLE3=Cover Me Over
TTITLE4=The Eye Of Death
TTITLE5=Too Old To Be Loved
TTITLE6=Hum Diya
TTITLE7=Gimme No Direction
TTITLE8=She's All Women
TTITLE9=Waters Of Loneliness
EXTD=
EXTT0=
EXTT1=
EXTT2=
EXTT3=
EXTT4=
EXTT5=
EXTT6=
EXTT7=
EXTT8=
EXTT9=
PLAYORDER=
